<svg width="280" height="240" viewBox="0 0 280 240" fill="none" xmlns="http://www.w3.org/2000/svg">
<path d="M246 111.443C246 139.843 234.4 165.443 215.8 183.843C197.6 202.044 172.4 213.044 144.6 213.044C117 213.044 91.8002 201.844 73.4002 183.843C54.8002 165.443 43.2002 139.843 43.2002 111.443C43.2002 55.243 88.6002 9.84302 144.6 9.84302C200.6 9.84302 246 55.443 246 111.443Z" fill="#EAEEF9"/>
<path d="M237.2 44.843C241.73 44.843 245.4 41.1718 245.4 36.643C245.4 32.1142 241.73 28.443 237.2 28.443C232.672 28.443 229 32.1142 229 36.643C229 41.1718 232.672 44.843 237.2 44.843Z" fill="#EAEEF9"/>
<path d="M249.2 12.8431C252.294 12.8431 254.8 10.3359 254.8 7.24306C254.8 4.15028 252.294 1.64307 249.2 1.64307C246.108 1.64307 243.6 4.15028 243.6 7.24306C243.6 10.3359 246.108 12.8431 249.2 12.8431Z" fill="#EAEEF9"/>
<path d="M46.4008 44.643C49.4936 44.643 52.0008 42.1358 52.0008 39.043C52.0008 35.9502 49.4936 33.443 46.4008 33.443C43.308 33.443 40.8008 35.9502 40.8008 39.043C40.8008 42.1358 43.308 44.643 46.4008 44.643Z" fill="#EAEEF9"/>
<path d="M12.2008 152.643C17.9445 152.643 22.6008 147.987 22.6008 142.243C22.6008 136.499 17.9445 131.843 12.2008 131.843C6.45702 131.843 1.80078 136.499 1.80078 142.243C1.80078 147.987 6.45702 152.643 12.2008 152.643Z" fill="#EAEEF9"/>
<g filter="url(#filter0_d_772_8928)">
<path d="M235.238 53.2084V164.018C235.238 168.63 231.546 172.284 227.02 172.284H60.1102C55.5846 172.284 51.833 168.57 51.833 164.018V53.2084C51.833 48.6562 55.525 44.9426 60.1102 44.9426H227.02C231.546 44.9426 235.238 48.6562 235.238 53.2084Z" fill="url(#paint0_linear_772_8928)"/>
</g>
<path d="M235.238 53.2084V65.6072H51.833V53.2084C51.833 48.6562 55.525 44.9426 60.1102 44.9426H227.02C231.546 44.9426 235.238 48.6562 235.238 53.2084Z" fill="#D5DDEA"/>
<path d="M63.3857 58.3594C65.0957 58.3594 66.4821 56.965 66.4821 55.2448C66.4821 53.5246 65.0957 52.1302 63.3857 52.1302C61.6755 52.1302 60.2891 53.5246 60.2891 55.2448C60.2891 56.965 61.6755 58.3594 63.3857 58.3594Z" fill="#989FB0"/>
<path d="M73.5085 58.3594C75.2185 58.3594 76.6049 56.965 76.6049 55.2448C76.6049 53.5246 75.2185 52.1302 73.5085 52.1302C71.7983 52.1302 70.4121 53.5246 70.4121 55.2448C70.4121 56.965 71.7983 58.3594 73.5085 58.3594Z" fill="#989FB0"/>
<path d="M83.572 58.3594C85.2822 58.3594 86.6684 56.965 86.6684 55.2448C86.6684 53.5246 85.2822 52.1302 83.572 52.1302C81.862 52.1302 80.4756 53.5246 80.4756 55.2448C80.4756 56.965 81.862 58.3594 83.572 58.3594Z" fill="#989FB0"/>
<path d="M90.1221 141.077H196.949" stroke="#D5DDEA" stroke-width="4" stroke-miterlimit="10" stroke-linecap="round" stroke-linejoin="round"/>
<path d="M106.974 152.518H180.097" stroke="#D5DDEA" stroke-width="4" stroke-miterlimit="10" stroke-linecap="round" stroke-linejoin="round"/>
<path d="M125.671 108.853V115.022H121.92V120.952H114.893V115.022H99.4111V107.954L113.762 87.8888H121.979V108.913H125.671V108.853ZM114.893 96.0946L105.961 108.853H114.893V96.0946Z" fill="url(#paint1_linear_772_8928)"/>
<path d="M143.297 121.611C135.794 121.611 129.185 115.022 129.185 104.36C129.185 93.6988 135.735 87.1102 143.297 87.1102C150.86 87.1102 157.41 93.6988 157.41 104.36C157.41 115.022 150.86 121.611 143.297 121.611ZM143.297 115.262C146.811 115.262 150.324 111.728 150.324 104.42C150.324 97.113 146.811 93.579 143.297 93.579C139.784 93.579 136.271 97.113 136.271 104.42C136.271 111.728 139.784 115.262 143.297 115.262Z" fill="url(#paint2_linear_772_8928)"/>
<path d="M187.719 108.853V115.022H183.968V120.952H176.941V115.022H161.459V107.954L175.81 87.8888H184.027V108.913H187.719V108.853ZM176.882 96.0946L167.95 108.853H176.882V96.0946Z" fill="url(#paint3_linear_772_8928)"/>
<path d="M227.128 196.753L187.234 156.891L196.38 147.745L236.242 187.639L227.128 196.753Z" fill="#858B9B"/>
<path d="M240.996 210.778L210.406 180.188C207.852 177.633 207.852 173.471 210.406 170.916C212.96 168.362 217.124 168.362 219.678 170.916L250.268 201.506C252.822 204.06 252.822 208.224 250.268 210.778C247.714 213.332 243.55 213.332 240.996 210.778Z" fill="#858B9B"/>
<path d="M238.821 212.734L199.463 173.376C198.549 172.461 198.549 170.979 199.463 170.033L209.522 159.973C210.438 159.058 211.92 159.058 212.866 159.973L252.224 199.33C253.138 200.246 253.138 201.728 252.224 202.674L242.164 212.734C241.216 213.648 239.735 213.648 238.821 212.734Z" fill="url(#paint4_linear_772_8928)"/>
<path d="M142.075 28.4428C100.321 28.4428 66.4824 62.2814 66.4824 104.036C66.4824 145.758 100.321 179.628 142.044 179.628C183.798 179.628 217.636 145.79 217.636 104.036C217.636 62.2814 183.798 28.4428 142.075 28.4428ZM142.075 165.626C108.552 165.626 81.399 138.032 81.399 104.004C81.399 69.9764 108.552 42.4134 142.075 42.4134C175.598 42.4134 202.75 70.0078 202.75 104.036C202.75 138.063 175.567 165.626 142.075 165.626Z" fill="url(#paint5_linear_772_8928)"/>
<defs>
<filter id="filter0_d_772_8928" x="7.83301" y="22.9426" width="271.405" height="215.341" filterUnits="userSpaceOnUse" color-interpolation-filters="sRGB">
<feFlood flood-opacity="0" result="BackgroundImageFix"/>
<feColorMatrix in="SourceAlpha" type="matrix" values="0 0 0 0 0 0 0 0 0 0 0 0 0 0 0 0 0 0 127 0" result="hardAlpha"/>
<feOffset dy="22"/>
<feGaussianBlur stdDeviation="22"/>
<feColorMatrix type="matrix" values="0 0 0 0 0.397708 0 0 0 0 0.47749 0 0 0 0 0.575 0 0 0 0.27 0"/>
<feBlend mode="normal" in2="BackgroundImageFix" result="effect1_dropShadow_772_8928"/>
<feBlend mode="normal" in="SourceGraphic" in2="effect1_dropShadow_772_8928" result="shape"/>
</filter>
<linearGradient id="paint0_linear_772_8928" x1="143.476" y1="41.9972" x2="143.476" y2="173.657" gradientUnits="userSpaceOnUse">
<stop stop-color="#FDFEFF"/>
<stop offset="0.9964" stop-color="#ECF0F5"/>
</linearGradient>
<linearGradient id="paint1_linear_772_8928" x1="157.73" y1="87.1102" x2="164.329" y2="121.611" gradientUnits="userSpaceOnUse">
<stop stop-color="#B0BACC"/>
<stop offset="1" stop-color="#969EAE"/>
</linearGradient>
<linearGradient id="paint2_linear_772_8928" x1="157.73" y1="87.1102" x2="164.329" y2="121.611" gradientUnits="userSpaceOnUse">
<stop stop-color="#B0BACC"/>
<stop offset="1" stop-color="#969EAE"/>
</linearGradient>
<linearGradient id="paint3_linear_772_8928" x1="157.73" y1="87.1102" x2="164.329" y2="121.611" gradientUnits="userSpaceOnUse">
<stop stop-color="#B0BACC"/>
<stop offset="1" stop-color="#969EAE"/>
</linearGradient>
<linearGradient id="paint4_linear_772_8928" x1="198.752" y1="186.359" x2="252.918" y2="186.359" gradientUnits="userSpaceOnUse">
<stop stop-color="#B0BACC"/>
<stop offset="1" stop-color="#969EAE"/>
</linearGradient>
<linearGradient id="paint5_linear_772_8928" x1="66.4132" y1="104.052" x2="217.664" y2="104.052" gradientUnits="userSpaceOnUse">
<stop stop-color="#B0BACC"/>
<stop offset="1" stop-color="#969EAE"/>
</linearGradient>
</defs>
</svg>
